ffmpeg started on 2025-06-06 at 16:32:07
Report written to "D:\Convert\FFMetrics\reports\ssim_report-6.txt"
Log level: 32
Command line:
ffmpeg -hide_banner -nostdin -i "G:\\\xc0\xed\xe8\xec\xe5\\\xce\xed\xe3\xee\xe8\xed\xe3\xe8\\!_36_\xce\xf1\xe5\xed\xfc_2024\\DreamCast\\\xcf\xe5\xf0\xe5\xf0\xee\xe6\xe4\xe5\xed\xe8\xe5 \xe2 \xe0\xf0\xe8\xf1\xf2\xee\xea\xf0\xe0\xf2\xe0 \xf1\xee \xf1\xef\xee\xf1\xee\xe1\xed\xee\xf1\xf2\xfc\xfe \xe0\xed\xe0\xeb\xe8\xe7\xe0\\\xd2\xc2-2\\DC_Tensei_Kizoku_Kantei_Skill_de_Nariagaru_S2_10_Telegram_HEVC.mkv" -i "G:\\\xc0\xed\xe8\xec\xe5\\\xce\xed\xe3\xee\xe8\xed\xe3\xe8\\!_36_\xce\xf1\xe5\xed\xfc_2024\\DreamCast\\\xcf\xe5\xf0\xe5\xf0\xee\xe6\xe4\xe5\xed\xe8\xe5 \xe2 \xe0\xf0\xe8\xf1\xf2\xee\xea\xf0\xe0\xf2\xe0 \xf1\xee \xf1\xef\xee\xf1\xee\xe1\xed\xee\xf1\xf2\xfc\xfe \xe0\xed\xe0\xeb\xe8\xe7\xe0\\\xd2\xc2-2\\DC_Tensei_Kizoku_Kantei_Skill_de_Nariagaru_S2_10_Telegram.mp4" -lavfi "[0:v]settb=AVTB,setpts=PTS-STARTPTS,format=pix_fmts=yuv420p10,fps=24000/1001,scale=1920:1080:flags=bicubic[main];[1:v]settb=AVTB,setpts=PTS-STARTPTS,format=pix_fmts=yuv420p,fps=24000/1001,scale=1920:1080:flags=bicubic[ref];[main][ref]ssim=eof_action=endall:stats_file='D\\:/Convert/FFMetrics/logs/ssim_logfile-6.txt'" -f null -
Input #0, matroska,webm, from 'G:\Аниме\Онгоинги\!_36_Осень_2024\DreamCast\Перерождение в аристократа со способностью анализа\ТВ-2\DC_Tensei_Kizoku_Kantei_Skill_de_Nariagaru_S2_10_Telegram_HEVC.mkv':
  Metadata:
    COMPATIBLE_BRANDS: isomiso2avc1mp41
    MAJOR_BRAND     : isom
    MINOR_VERSION   : 512
    ENCODER         : Lavf61.7.100
  Duration: 00:23:50.44, start: -0.021000, bitrate: 1221 kb/s
  Stream #0:0: Video: hevc (Main 10), yuv420p10le(tv, bt709, progressive), 1920x1080 [SAR 1:1 DAR 16:9], 23.98 fps, 23.98 tbr, 1k tbn (default)
      Metadata:
        HANDLER_NAME    : VideoHandler
        VENDOR_ID       : [0][0][0][0]
        ENCODER         : Lavc61.19.100 libx265
        BPS             : 1026952
        DURATION        : 00:23:46.508708333
        NUMBER_OF_FRAMES: 34202
        NUMBER_OF_BYTES : 183119536
        _STATISTICS_WRITING_APP: mkvpropedit v66.0.0 ('Josie') 64-bit
        _STATISTICS_WRITING_DATE_UTC: 2025-06-02 10:47:49
        _STATISTICS_TAGS: BPS DURATION NUMBER_OF_FRAMES NUMBER_OF_BYTES
  Stream #0:1: Audio: aac (LC), 48000 Hz, stereo, fltp (default)
      Metadata:
        HANDLER_NAME    : SoundHandler
        VENDOR_ID       : [0][0][0][0]
        ENCODER         : Lavc61.19.100 aac
        BPS             : 193726
        DURATION        : 00:23:50.442000000
        NUMBER_OF_FRAMES: 67053
        NUMBER_OF_BYTES : 34639277
        _STATISTICS_WRITING_APP: mkvpropedit v66.0.0 ('Josie') 64-bit
        _STATISTICS_WRITING_DATE_UTC: 2025-06-02 10:47:49
        _STATISTICS_TAGS: BPS DURATION NUMBER_OF_FRAMES NUMBER_OF_BYTES
Input #1, mov,mp4,m4a,3gp,3g2,mj2, from 'G:\Аниме\Онгоинги\!_36_Осень_2024\DreamCast\Перерождение в аристократа со способностью анализа\ТВ-2\DC_Tensei_Kizoku_Kantei_Skill_de_Nariagaru_S2_10_Telegram.mp4':
  Metadata:
    major_brand     : isom
    minor_version   : 512
    compatible_brands: isomiso2avc1mp41
    encoder         : Lavf61.1.100
  Duration: 00:23:50.41, start: 0.000000, bitrate: 3609 kb/s
  Stream #1:0[0x1](und): Video: h264 (High) (avc1 / 0x31637661), yuv420p(tv, bt709, progressive), 1920x1080 [SAR 1:1 DAR 16:9], 3471 kb/s, 23.98 fps, 23.98 tbr, 24k tbn (default)
      Metadata:
        handler_name    : VideoHandler
        vendor_id       : [0][0][0][0]
        encoder         : Lavc61.3.100 h264_qsv
  Stream #1:1[0x2](und): Audio: aac (HE-AACv2) (mp4a / 0x6134706D), 48000 Hz, stereo, fltp, 144 kb/s (default)
      Metadata:
        handler_name    : SoundHandler
        vendor_id       : [0][0][0][0]
Stream mapping:
  Stream #0:0 (hevc) -> settb:default
  Stream #1:0 (h264) -> settb:default
  ssim:default -> Stream #0:0 (wrapped_avframe)
  Stream #0:1 -> #0:1 (aac (native) -> pcm_s16le (native))
Output #0, null, to 'pipe:':
  Metadata:
    COMPATIBLE_BRANDS: isomiso2avc1mp41
    MAJOR_BRAND     : isom
    MINOR_VERSION   : 512
    encoder         : Lavf61.7.100
  Stream #0:0: Video: wrapped_avframe, yuv420p10le(tv, bt709, progressive), 1920x1080 [SAR 1:1 DAR 16:9], q=2-31, 200 kb/s, 23.98 fps, 23.98 tbn
      Metadata:
        encoder         : Lavc61.19.100 wrapped_avframe
  Stream #0:1: Audio: pcm_s16le, 48000 Hz, stereo, s16, 1536 kb/s (default)
      Metadata:
        HANDLER_NAME    : SoundHandler
        VENDOR_ID       : [0][0][0][0]
        _STATISTICS_TAGS: BPS DURATION NUMBER_OF_FRAMES NUMBER_OF_BYTES
        BPS             : 193726
        DURATION        : 00:23:50.442000000
        NUMBER_OF_FRAMES: 67053
        NUMBER_OF_BYTES : 34639277
        _STATISTICS_WRITING_APP: mkvpropedit v66.0.0 ('Josie') 64-bit
        _STATISTICS_WRITING_DATE_UTC: 2025-06-02 10:47:49
        encoder         : Lavc61.19.100 pcm_s16le
frame=  168 fps=0.0 q=-0.0 size=N/A time=00:00:07.00 bitrate=N/A speed=13.5x    frame=  355 fps=341 q=-0.0 size=N/A time=00:00:14.80 bitrate=N/A speed=14.2x    frame=  559 fps=358 q=-0.0 size=N/A time=00:00:23.31 bitrate=N/A speed=14.9x    frame=  774 fps=374 q=-0.0 size=N/A time=00:00:32.28 bitrate=N/A speed=15.6x    frame=  970 fps=374 q=-0.0 size=N/A time=00:00:40.45 bitrate=N/A speed=15.6x    frame= 1208 fps=390 q=-0.0 size=N/A time=00:00:50.38 bitrate=N/A speed=16.3x    frame= 1408 fps=389 q=-0.0 size=N/A time=00:00:58.72 bitrate=N/A speed=16.2x    frame= 1587 fps=385 q=-0.0 size=N/A time=00:01:06.19 bitrate=N/A speed=  16x    frame= 1813 fps=390 q=-0.0 size=N/A time=00:01:15.61 bitrate=N/A speed=16.3x    frame= 2043 fps=396 q=-0.0 size=N/A time=00:01:25.21 bitrate=N/A speed=16.5x    frame= 2232 fps=393 q=-0.0 size=N/A time=00:01:33.09 bitrate=N/A speed=16.4x    frame= 2414 fps=389 q=-0.0 size=N/A time=00:01:40.68 bitrate=N/A speed=16.2x    frame= 2610 fps=389 q=-0.0 size=N/A time=00:01:48.85 bitrate=N/A speed=16.2x    frame= 2791 fps=386 q=-0.0 size=N/A time=00:01:56.40 bitrate=N/A speed=16.1x    frame= 2970 fps=383 q=-0.0 size=N/A time=00:02:03.87 bitrate=N/A speed=  16x    frame= 3174 fps=384 q=-0.0 size=N/A time=00:02:12.38 bitrate=N/A speed=  16x    frame= 3304 fps=376 q=-0.0 size=N/A time=00:02:17.80 bitrate=N/A speed=15.7x    frame= 3472 fps=374 q=-0.0 size=N/A time=00:02:24.81 bitrate=N/A speed=15.6x    frame= 3649 fps=372 q=-0.0 size=N/A time=00:02:32.19 bitrate=N/A speed=15.5x    frame= 3832 fps=371 q=-0.0 size=N/A time=00:02:39.82 bitrate=N/A speed=15.5x    frame= 4026 fps=371 q=-0.0 size=N/A time=00:02:47.91 bitrate=N/A speed=15.5x    frame= 4198 fps=369 q=-0.0 size=N/A time=00:02:55.09 bitrate=N/A speed=15.4x    frame= 4374 fps=368 q=-0.0 size=N/A time=00:03:02.43 bitrate=N/A speed=15.4x    frame= 4564 fps=368 q=-0.0 size=N/A time=00:03:10.35 bitrate=N/A speed=15.3x    frame= 4789 fps=371 q=-0.0 size=N/A time=00:03:19.74 bitrate=N/A speed=15.5x    frame= 5032 fps=375 q=-0.0 size=N/A time=00:03:29.87 bitrate=N/A speed=15.6x    frame= 5235 fps=375 q=-0.0 size=N/A time=00:03:38.34 bitrate=N/A speed=15.7x    frame= 5443 fps=377 q=-0.0 size=N/A time=00:03:47.01 bitrate=N/A speed=15.7x    frame= 5669 fps=378 q=-0.0 size=N/A time=00:03:56.44 bitrate=N/A speed=15.8x    frame= 5849 fps=378 q=-0.0 size=N/A time=00:04:03.95 bitrate=N/A speed=15.8x    frame= 6075 fps=379 q=-0.0 size=N/A time=00:04:13.37 bitrate=N/A speed=15.8x    frame= 6268 fps=379 q=-0.0 size=N/A time=00:04:21.42 bitrate=N/A speed=15.8x    frame= 6472 fps=380 q=-0.0 size=N/A time=00:04:29.93 bitrate=N/A speed=15.8x    frame= 6708 fps=382 q=-0.0 size=N/A time=00:04:39.77 bitrate=N/A speed=15.9x    frame= 6978 fps=386 q=-0.0 size=N/A time=00:04:51.04 bitrate=N/A speed=16.1x    frame= 7221 fps=388 q=-0.0 size=N/A time=00:05:01.17 bitrate=N/A speed=16.2x    frame= 7478 fps=392 q=-0.0 size=N/A time=00:05:11.89 bitrate=N/A speed=16.3x    frame= 7759 fps=395 q=-0.0 size=N/A time=00:05:23.61 bitrate=N/A speed=16.5x    frame= 7995 fps=397 q=-0.0 size=N/A time=00:05:33.45 bitrate=N/A speed=16.6x    frame= 8205 fps=397 q=-0.0 size=N/A time=00:05:42.21 bitrate=N/A speed=16.6x    frame= 8427 fps=398 q=-0.0 size=N/A time=00:05:51.47 bitrate=N/A speed=16.6x    frame= 8647 fps=399 q=-0.0 size=N/A time=00:06:00.65 bitrate=N/A speed=16.6x    frame= 8880 fps=400 q=-0.0 size=N/A time=00:06:10.37 bitrate=N/A speed=16.7x    frame= 9115 fps=401 q=-0.0 size=N/A time=00:06:20.17 bitrate=N/A speed=16.7x    frame= 9348 fps=402 q=-0.0 size=N/A time=00:06:29.88 bitrate=N/A speed=16.8x    frame= 9611 fps=405 q=-0.0 size=N/A time=00:06:40.85 bitrate=N/A speed=16.9x    frame= 9878 fps=407 q=-0.0 size=N/A time=00:06:51.99 bitrate=N/A speed=  17x    frame=10132 fps=409 q=-0.0 size=N/A time=00:07:02.58 bitrate=N/A speed=17.1x    frame=10396 fps=411 q=-0.0 size=N/A time=00:07:13.59 bitrate=N/A speed=17.1x    frame=10638 fps=412 q=-0.0 size=N/A time=00:07:23.69 bitrate=N/A speed=17.2x    frame=10829 fps=411 q=-0.0 size=N/A time=00:07:31.65 bitrate=N/A speed=17.2x    frame=11087 fps=413 q=-0.0 size=N/A time=00:07:42.42 bitrate=N/A speed=17.2x    frame=11335 fps=414 q=-0.0 size=N/A time=00:07:52.76 bitrate=N/A speed=17.3x    frame=11579 fps=415 q=-0.0 size=N/A time=00:08:02.94 bitrate=N/A speed=17.3x    frame=11786 fps=415 q=-0.0 size=N/A time=00:08:11.57 bitrate=N/A speed=17.3x    frame=12020 fps=416 q=-0.0 size=N/A time=00:08:21.33 bitrate=N/A speed=17.3x    frame=12280 fps=418 q=-0.0 size=N/A time=00:08:32.17 bitrate=N/A speed=17.4x    frame=12488 fps=417 q=-0.0 size=N/A time=00:08:40.85 bitrate=N/A speed=17.4x    frame=12729 fps=418 q=-0.0 size=N/A time=00:08:50.90 bitrate=N/A speed=17.4x    frame=12988 fps=420 q=-0.0 size=N/A time=00:09:01.70 bitrate=N/A speed=17.5x    frame=13212 fps=420 q=-0.0 size=N/A time=00:09:11.05 bitrate=N/A speed=17.5x    frame=13481 fps=421 q=-0.0 size=N/A time=00:09:22.27 bitrate=N/A speed=17.6x    frame=13720 fps=422 q=-0.0 size=N/A time=00:09:32.23 bitrate=N/A speed=17.6x    frame=13963 fps=423 q=-0.0 size=N/A time=00:09:42.37 bitrate=N/A speed=17.6x    frame=14204 fps=423 q=-0.0 size=N/A time=00:09:52.42 bitrate=N/A speed=17.7x    frame=14438 fps=424 q=-0.0 size=N/A time=00:10:02.18 bitrate=N/A speed=17.7x    frame=14672 fps=424 q=-0.0 size=N/A time=00:10:11.94 bitrate=N/A speed=17.7x    frame=14916 fps=425 q=-0.0 size=N/A time=00:10:22.12 bitrate=N/A speed=17.7x    frame=15185 fps=426 q=-0.0 size=N/A time=00:10:33.34 bitrate=N/A speed=17.8x    frame=15448 fps=427 q=-0.0 size=N/A time=00:10:44.31 bitrate=N/A speed=17.8x    frame=15714 fps=429 q=-0.0 size=N/A time=00:10:55.40 bitrate=N/A speed=17.9x    frame=15981 fps=430 q=-0.0 size=N/A time=00:11:06.54 bitrate=N/A speed=17.9x    frame=16188 fps=430 q=-0.0 size=N/A time=00:11:15.17 bitrate=N/A speed=17.9x    frame=16407 fps=430 q=-0.0 size=N/A time=00:11:24.30 bitrate=N/A speed=17.9x    frame=16665 fps=430 q=-0.0 size=N/A time=00:11:35.06 bitrate=N/A speed=  18x    frame=16942 fps=432 q=-0.0 size=N/A time=00:11:46.62 bitrate=N/A speed=  18x    frame=17170 fps=432 q=-0.0 size=N/A time=00:11:56.13 bitrate=N/A speed=  18x    frame=17421 fps=433 q=-0.0 size=N/A time=00:12:06.60 bitrate=N/A speed=  18x    frame=17690 fps=434 q=-0.0 size=N/A time=00:12:17.82 bitrate=N/A speed=18.1x    frame=17960 fps=435 q=-0.0 size=N/A time=00:12:29.08 bitrate=N/A speed=18.1x    frame=18205 fps=435 q=-0.0 size=N/A time=00:12:39.30 bitrate=N/A speed=18.2x    frame=18416 fps=435 q=-0.0 size=N/A time=00:12:48.10 bitrate=N/A speed=18.1x    frame=18633 fps=435 q=-0.0 size=N/A time=00:12:57.15 bitrate=N/A speed=18.1x    frame=18880 fps=435 q=-0.0 size=N/A time=00:13:07.45 bitrate=N/A speed=18.2x    frame=19126 fps=436 q=-0.0 size=N/A time=00:13:17.71 bitrate=N/A speed=18.2x    frame=19336 fps=435 q=-0.0 size=N/A time=00:13:26.47 bitrate=N/A speed=18.2x    frame=19561 fps=435 q=-0.0 size=N/A time=00:13:35.85 bitrate=N/A speed=18.2x    frame=19810 fps=436 q=-0.0 size=N/A time=00:13:46.24 bitrate=N/A speed=18.2x    frame=20049 fps=436 q=-0.0 size=N/A time=00:13:56.21 bitrate=N/A speed=18.2x    frame=20292 fps=437 q=-0.0 size=N/A time=00:14:06.34 bitrate=N/A speed=18.2x    frame=20549 fps=437 q=-0.0 size=N/A time=00:14:17.06 bitrate=N/A speed=18.2x    frame=20776 fps=437 q=-0.0 size=N/A time=00:14:26.53 bitrate=N/A speed=18.2x    frame=21007 fps=438 q=-0.0 size=N/A time=00:14:36.20 bitrate=N/A speed=18.3x    frame=21252 fps=438 q=-0.0 size=N/A time=00:14:46.38 bitrate=N/A speed=18.3x    frame=21525 fps=439 q=-0.0 size=N/A time=00:14:57.77 bitrate=N/A speed=18.3x    frame=21803 fps=440 q=-0.0 size=N/A time=00:15:09.36 bitrate=N/A speed=18.3x    frame=22061 fps=441 q=-0.0 size=N/A time=00:15:20.12 bitrate=N/A speed=18.4x    frame=22339 fps=442 q=-0.0 size=N/A time=00:15:31.72 bitrate=N/A speed=18.4x    frame=22613 fps=442 q=-0.0 size=N/A time=00:15:43.15 bitrate=N/A speed=18.5x    frame=22886 fps=443 q=-0.0 size=N/A time=00:15:54.53 bitrate=N/A speed=18.5x    frame=23149 fps=444 q=-0.0 size=N/A time=00:16:05.50 bitrate=N/A speed=18.5x    frame=23420 fps=445 q=-0.0 size=N/A time=00:16:16.80 bitrate=N/A speed=18.6x    frame=23683 fps=446 q=-0.0 size=N/A time=00:16:27.77 bitrate=N/A speed=18.6x    frame=23955 fps=446 q=-0.0 size=N/A time=00:16:39.12 bitrate=N/A speed=18.6x    frame=24225 fps=447 q=-0.0 size=N/A time=00:16:50.38 bitrate=N/A speed=18.6x    frame=24508 fps=448 q=-0.0 size=N/A time=00:17:02.18 bitrate=N/A speed=18.7x    frame=24772 fps=449 q=-0.0 size=N/A time=00:17:13.19 bitrate=N/A speed=18.7x    frame=25051 fps=449 q=-0.0 size=N/A time=00:17:24.83 bitrate=N/A speed=18.7x    frame=25296 fps=450 q=-0.0 size=N/A time=00:17:35.05 bitrate=N/A speed=18.8x    frame=25576 fps=450 q=-0.0 size=N/A time=00:17:46.73 bitrate=N/A speed=18.8x    frame=25843 fps=451 q=-0.0 size=N/A time=00:17:57.86 bitrate=N/A speed=18.8x    frame=26097 fps=451 q=-0.0 size=N/A time=00:18:08.46 bitrate=N/A speed=18.8x    frame=26336 fps=452 q=-0.0 size=N/A time=00:18:18.43 bitrate=N/A speed=18.8x    frame=26593 fps=452 q=-0.0 size=N/A time=00:18:29.14 bitrate=N/A speed=18.8x    frame=26764 fps=451 q=-0.0 size=N/A time=00:18:36.28 bitrate=N/A speed=18.8x    frame=26978 fps=451 q=-0.0 size=N/A time=00:18:45.20 bitrate=N/A speed=18.8x    frame=27232 fps=451 q=-0.0 size=N/A time=00:18:55.80 bitrate=N/A speed=18.8x    frame=27489 fps=451 q=-0.0 size=N/A time=00:19:06.52 bitrate=N/A speed=18.8x    frame=27759 fps=452 q=-0.0 size=N/A time=00:19:17.78 bitrate=N/A speed=18.8x    frame=27999 fps=452 q=-0.0 size=N/A time=00:19:27.79 bitrate=N/A speed=18.9x    frame=28178 fps=451 q=-0.0 size=N/A time=00:19:35.25 bitrate=N/A speed=18.8x    frame=28410 fps=451 q=-0.0 size=N/A time=00:19:44.93 bitrate=N/A speed=18.8x    frame=28656 fps=451 q=-0.0 size=N/A time=00:19:55.19 bitrate=N/A speed=18.8x    frame=28895 fps=451 q=-0.0 size=N/A time=00:20:05.16 bitrate=N/A speed=18.8x    frame=29129 fps=451 q=-0.0 size=N/A time=00:20:14.92 bitrate=N/A speed=18.8x    frame=29333 fps=451 q=-0.0 size=N/A time=00:20:23.43 bitrate=N/A speed=18.8x    frame=29595 fps=451 q=-0.0 size=N/A time=00:20:34.35 bitrate=N/A speed=18.8x    frame=29859 fps=452 q=-0.0 size=N/A time=00:20:45.36 bitrate=N/A speed=18.8x    frame=30135 fps=453 q=-0.0 size=N/A time=00:20:56.88 bitrate=N/A speed=18.9x    frame=30369 fps=453 q=-0.0 size=N/A time=00:21:06.64 bitrate=N/A speed=18.9x    frame=30623 fps=453 q=-0.0 size=N/A time=00:21:17.23 bitrate=N/A speed=18.9x    frame=30800 fps=452 q=-0.0 size=N/A time=00:21:24.61 bitrate=N/A speed=18.9x    frame=31002 fps=452 q=-0.0 size=N/A time=00:21:33.04 bitrate=N/A speed=18.8x    frame=31257 fps=452 q=-0.0 size=N/A time=00:21:43.67 bitrate=N/A speed=18.8x    frame=31514 fps=452 q=-0.0 size=N/A time=00:21:54.39 bitrate=N/A speed=18.9x    frame=31777 fps=453 q=-0.0 size=N/A time=00:22:05.36 bitrate=N/A speed=18.9x    frame=32021 fps=453 q=-0.0 size=N/A time=00:22:15.54 bitrate=N/A speed=18.9x    frame=32304 fps=454 q=-0.0 size=N/A time=00:22:27.34 bitrate=N/A speed=18.9x    frame=32535 fps=454 q=-0.0 size=N/A time=00:22:36.98 bitrate=N/A speed=18.9x    frame=32787 fps=454 q=-0.0 size=N/A time=00:22:47.49 bitrate=N/A speed=18.9x    frame=32991 fps=453 q=-0.0 size=N/A time=00:22:55.99 bitrate=N/A speed=18.9x    frame=33223 fps=453 q=-0.0 size=N/A time=00:23:05.67 bitrate=N/A speed=18.9x    frame=33454 fps=453 q=-0.0 size=N/A time=00:23:15.31 bitrate=N/A speed=18.9x    frame=33683 fps=453 q=-0.0 size=N/A time=00:23:24.86 bitrate=N/A speed=18.9x    frame=33945 fps=454 q=-0.0 size=N/A time=00:23:35.78 bitrate=N/A speed=18.9x    frame=34177 fps=454 q=-0.0 size=N/A time=00:23:45.46 bitrate=N/A speed=18.9x    [Parsed_ssim_10 @ 00000243748be9c0] SSIM Y:0.994034 (22.243454) U:0.994717 (22.771448) V:0.994773 (22.817562) All:0.994271 (22.419463)
[out#0/null @ 0000024371dc5380] video:14696KiB audio:268212KiB subtitle:0KiB other streams:0KiB global headers:0KiB muxing overhead: unknown
frame=34202 fps=454 q=-0.0 Lsize=N/A time=00:23:46.50 bitrate=N/A speed=18.9x    
